# xmcd
#
# Track frame offsets:
#	150
#	17775
#	35400
#
# Disc length: 702 seconds
#
# Revision: 0
# Processed by: cddbd v1.5.1PL0 Copyright (c) Steve Scherf et al.
# Submitted via: audiograbber 1.83.01
#
DISCID=1b02bc03
DTITLE=Clint Black - Spend My Time - Promo Single
DYEAR=2003
DGENRE=Country
TTITLE0=Spend My Time
TTITLE1=Spend My Time
TTITLE2=Spend My Time
EXTD=
EXTT0=
EXTT1=
EXTT2=
PLAYORDER=
